# xmcd CD database file
#
# Track frame offsets:
#	182
#	14277
#	30557
#	48335
#	59257
#	78767
#	91597
#	109002
#	124522
#	138817
#
# Disc length: 2081 seconds
#
# Revision: 3
# Processed by: cddbd v1.4PL0 Copyright (c) Steve Scherf et al.
# Submitted via: CDex 1.50
#
DISCID=69081f0a
DTITLE=Daron Norwood - Daron Norwood
DYEAR=1994
DGENRE=Country
TTITLE0=Cowboys Don't Cry
TTITLE1=If It Wasn't For Her I Wouldn't Have You
TTITLE2=Phantom Of The Opry
TTITLE3=Phonographic Memory
TTITLE4=J.T. Miller's Farm
TTITLE5=Honky Tonk Heartache Of The Year
TTITLE6=If I Ever Love Again
TTITLE7=A Little Bigger Piece Of American Pie
TTITLE8=I Was Losing You
TTITLE9=That's Life
EXTD=YEAR: 1994
EXTT0=
EXTT1=
EXTT2=
EXTT3=
EXTT4=
EXTT5=
EXTT6=
EXTT7=
EXTT8=
EXTT9=
PLAYORDER=
